<?xml version="1.0" encoding="UTF-8" standalone="no"?>
<!-- Created with Inkscape (http://www.inkscape.org/) -->

<svg
   xmlns:dc="http://purl.org/dc/elements/1.1/"
   xmlns:cc="http://creativecommons.org/ns#"
   xmlns:rdf="http://www.w3.org/1999/02/22-rdf-syntax-ns#"
   xmlns:svg="http://www.w3.org/2000/svg"
   xmlns="http://www.w3.org/2000/svg"
   xmlns:sodipodi="http://sodipodi.sourceforge.net/DTD/sodipodi-0.dtd"
   xmlns:inkscape="http://www.inkscape.org/namespaces/inkscape"
   version="1.1"
   id="svg2"
   xml:space="preserve"
   width="700"
   height="700"
   viewBox="0 0 700 700.00003"
   sodipodi:docname="gerdau-logo.svg"
   inkscape:version="0.92.4 (5da689c313, 2019-01-14)"
   inkscape:export-filename="C:\Users\suitedoalex\sites\gerdau-logo-0.png"
   inkscape:export-xdpi="561.73999"
   inkscape:export-ydpi="561.73999"><metadata
     id="metadata8"><rdf:RDF><cc:Work
         rdf:about=""><dc:format>image/svg+xml</dc:format><dc:type
           rdf:resource="http://purl.org/dc/dcmitype/StillImage" /><dc:title></dc:title></cc:Work></rdf:RDF></metadata><defs
     id="defs6"><clipPath
       clipPathUnits="userSpaceOnUse"
       id="clipPath20"><path
         d="M 0,0 H 595.2759 V 841.8898 H 0 Z"
         id="path18"
         inkscape:connector-curvature="0" /></clipPath></defs><sodipodi:namedview
     pagecolor="#ffffff"
     bordercolor="#666666"
     borderopacity="1"
     objecttolerance="10"
     gridtolerance="10"
     guidetolerance="10"
     inkscape:pageopacity="0"
     inkscape:pageshadow="2"
     inkscape:window-width="1600"
     inkscape:window-height="837"
     id="namedview4"
     showgrid="false"
     inkscape:zoom="0.42048262"
     inkscape:cx="-84.159822"
     inkscape:cy="374.53533"
     inkscape:window-x="-8"
     inkscape:window-y="-8"
     inkscape:window-maximized="1"
     inkscape:current-layer="g10" /><g
     id="g10"
     inkscape:groupmode="layer"
     inkscape:label="gerdau-logo"
     transform="matrix(1.3333333,0,0,-1.3333333,0,700.00005)"><path
       d="m 444.39453,-129.3681 h 7.11869 l -7.11869,21.49725 -0.46136,1.4519 -6.66289,-22.94915 z m 0,37.060533 h 9.23021 l 22.35217,-60.862373 h -17.47284 l -3.29735,11.20722 h -10.81219 -10.9478 l -3.03462,-11.20722 h -17.20825 l 21.10111,60.862373 z m -57.07586,-46.092103 c 5.73571,1.38667 9.49812,5.93173 9.2302,16.0213 -0.26348,9.49479 -3.69423,13.90979 -9.2302,15.36688 -1.2518,0.32759 -2.63848,0.5251 -4.02516,0.5881 h -5.20802 v -32.37243 h 5.01162 c 1.44856,0 2.9001,0.12933 4.22156,0.39615 z m 0,45.892728 c 5.27212,-0.528425 9.62412,-2.045175 13.45212,-4.6818 7.18799,-5.407758 12.59353,-13.718948 12.92259,-25.582428 -0.32906,-13.91832 -7.25024,-22.6842 -14.83659,-26.9039 -3.23323,-1.58717 -6.92562,-2.64293 -11.53812,-3.16505 -2.24271,-0.26385 -4.61955,-0.32982 -7.25433,-0.32982 h -18.13765 v 60.925373 h 21.23564 c 1.38334,-0.06593 2.77003,-0.128963 4.15634,-0.262375 z m -58.43254,0.196412 c 6.32974,-0.196412 11.40769,-0.921249 15.62739,-4.0233 4.74889,-3.69127 7.19021,-8.767 7.19021,-15.16417 0,-9.49591 -4.9475,-15.29759 -13.98056,-17.40874 l 17.6055,-24.2632 h -19.71776 l -6.72478,10.47904 -7.38587,11.60854 v -22.08758 h -15.95609 v 60.925373 h 18.85952 c 1.51268,0 3.03054,-0.06593 4.48244,-0.06593 z m 0,-28.55219 c 5.07646,0.46025 7.32139,3.02942 7.45258,7.77978 0.13043,4.48429 -1.97663,7.45479 -7.45258,7.98211 -1.19027,0.13341 -2.50766,0.0652 -3.95511,0 h -3.43076 v -15.62849 l 5.07683,-0.1334 c 0.79303,-0.0652 1.58198,-0.0652 2.30904,0 z m 149.54693,28.618153 0.0693,-38.127783 c 0,-14.74172 8.97599,-23.12555 25.55094,-22.79759 16.0517,0.32982 24.04122,7.40329 25.41863,22.66752 v 38.257853 h -16.11691 v -36.423893 c 0.3917,-6.1589 -2.75112,-10.02434 -9.30172,-10.21964 -6.09147,-0.13155 -10.15479,3.08094 -9.63043,10.21964 v 36.423893 z M 255.58847,-153.16994 h 41.21057 v 13.03598 h -24.89725 v 11.72824 h 20.96363 v 12.64281 h -20.89655 v 10.28818 h 24.83017 v 13.230163 h -41.21057 z m -24.24023,0.0567 13.88904,0.007 v 34.85155 h -30.00669 v -11.98612 l 15.52623,-0.0659 c -3.01239,-5.44147 -7.0116,-10.55166 -14.14919,-10.48236 -7.86354,-0.39615 -15.59292,6.21968 -15.79119,17.16415 -0.32795,11.85533 7.92765,18.1484 15.26683,17.8838 4.51912,-0.19567 9.9595,-2.61883 11.59706,-7.60005 l 14.2144,6.747 c -6.02625,10.023221 -15.85196,15.135633 -25.2871,14.740608 -17.75892,0.132663 -31.77802,-10.940028 -32.36946,-31.116928 0,-19.32829 15.26942,-30.13528 28.4377,-30.92387 8.25634,-0.45913 14.93812,2.68369 18.67237,7.4674 z"
       style="fill:#0f2d56;fill-opacity:1;fill-rule:evenodd;stroke:none;stroke-width:3.70571995"
       id="path28"
       inkscape:connector-curvature="0"
       inkscape:export-filename="C:\Users\suitedoalex\sites\gerdau-logo-4.png"
       inkscape:export-xdpi="95.959747"
       inkscape:export-ydpi="95.959747" /><path
       d="M 4.2517175,-18.838705 H 154.24073 V -168.82586 H 4.2517175 Z"
       style="fill:#0f2d56;fill-opacity:1;fill-rule:nonzero;stroke:none;stroke-width:3.70571995"
       id="path30"
       inkscape:connector-curvature="0"
       inkscape:export-filename="C:\Users\suitedoalex\sites\gerdau-logo-4.png"
       inkscape:export-xdpi="95.959747"
       inkscape:export-ydpi="95.959747" /><path
       d="M 77.387441,-152.30131 H 66.867267 v 4.98975 c -3.908788,-3.61679 -9.411788,-6.50761 -17.002588,-6.50761 -20.31105,0 -30.495112,16.64535 -30.495112,30.99426 0,14.34373 10.078825,31.036518 30.18865,31.036518 20.109462,0 27.716937,-17.978298 27.716937,-17.978298 l -9.101988,-5.45408 c 0,0 -6.273412,11.8846 -18.412237,11.8846 -12.134762,0 -19.182299,-10.49162 -19.182299,-19.48874 0,-9.00008 7.152412,-19.39018 19.392411,-19.39018 8.479051,0 13.306863,5.16503 15.47175,8.33343 H 49.857642 v 11.10419 h 27.529799 z"
       style="fill:#ffffff;fill-opacity:1;fill-rule:nonzero;stroke:none;stroke-width:3.70571995"
       id="path32"
       inkscape:connector-curvature="0"
       inkscape:export-filename="C:\Users\suitedoalex\sites\gerdau-logo-4.png"
       inkscape:export-xdpi="95.959747"
       inkscape:export-ydpi="95.959747" /><path
       d="m 81.307717,-122.77747 h 27.546833 v -11.1116 H 93.260517 c 2.16525,-3.16914 6.998253,-8.3375 15.481383,-8.3375 12.24741,0 19.40278,10.39528 19.40278,19.40055 0,9.00342 -7.05272,19.50245 -19.19563,19.50245 -12.141046,0 -18.420759,-11.89202 -18.420759,-11.89202 l -9.108287,5.45594 c 0,0 7.613775,17.989045 27.734716,17.989045 20.12132,0 30.20755,-16.702045 30.20755,-31.055415 0,-14.35633 -10.18925,-31.01094 -30.51513,-31.01094 -7.59561,0 -13.098974,2.89194 -17.015174,6.51169 v -4.99383 H 81.307717 Z"
       style="fill:#ffffff;fill-opacity:1;fill-rule:nonzero;stroke:none;stroke-width:3.70571995"
       id="path34"
       inkscape:connector-curvature="0"
       inkscape:export-filename="C:\Users\suitedoalex\sites\gerdau-logo-4.png"
       inkscape:export-xdpi="95.959747"
       inkscape:export-ydpi="95.959747" /><path
       d="m 356.93827,137.60724 h 7.67968 l -7.67968,23.19141 -0.49771,1.5663 -7.188,-24.75771 z m 0,39.98115 h 9.95759 l 24.11367,-65.65873 h -18.84978 l -3.55723,12.09044 h -11.66425 -11.81054 l -3.27379,-12.09044 h -18.5644 l 22.76403,65.65873 z m -61.57384,-49.72446 c 6.18773,1.49596 10.24668,6.39921 9.9576,17.2839 -0.28427,10.24303 -3.98535,15.00596 -9.9576,16.57788 -1.35042,0.35325 -2.8464,0.5665 -4.34237,0.63444 h -5.61843 v -34.92357 h 5.40657 c 1.56272,0 3.12864,0.13934 4.55423,0.42735 z m 0,49.50941 c 5.68759,-0.5701 10.38257,-2.20638 14.51226,-5.05079 7.75444,-5.83393 13.58599,-14.80007 13.941,-27.59847 -0.35512,-15.01517 -7.82165,-24.4719 -16.00585,-29.02413 -3.48801,-1.71225 -7.47137,-2.8512 -12.44741,-3.41448 -2.41943,-0.28474 -4.98361,-0.35557 -7.82602,-0.35557 h -19.56698 v 65.72672 h 22.90914 c 1.49235,-0.0713 2.98831,-0.13935 4.48386,-0.28287 z m -63.0374,0.21203 c 6.8285,-0.21203 12.30671,-0.99384 16.85893,-4.34038 5.12307,-3.98214 7.75682,-9.45788 7.75682,-16.35922 0,-10.24424 -5.33738,-16.50314 -15.08233,-18.78068 l 18.99294,-26.17529 h -21.27163 l -7.25473,11.30487 -7.96793,12.52336 V 111.9298 h -17.21359 v 65.72673 h 20.34581 c 1.63186,0 3.26937,-0.0713 4.83571,-0.0713 z m 0,-30.80231 c 5.47653,0.49649 7.89835,3.26815 8.03982,8.39288 0.14078,4.83766 -2.13237,8.0423 -8.03982,8.61117 -1.28408,0.14401 -2.7053,0.0703 -4.26679,0 h -3.70114 v -16.86016 l 5.47691,-0.14399 c 0.85552,-0.0703 1.70665,-0.0703 2.49102,0 z m 161.33225,30.87347 0.0746,-41.13256 c 0,-15.90345 9.68335,-24.94796 27.56451,-24.59417 17.31671,0.35557 25.93584,7.98671 27.4218,24.45386 v 41.27287 h -17.38702 v -39.29438 c 0.42268,-6.64424 -2.9679,-10.81433 -10.03477,-11.02497 -6.5715,-0.14206 -10.95503,3.3237 -10.38937,11.02497 v 39.29438 z M 153.25301,111.9298 h 44.45826 v 14.06333 h -26.85932 v 12.6525 h 22.61568 v 13.63912 h -22.54336 v 11.09897 h 26.787 v 14.27281 h -44.45826 z m -26.1505,0.061 14.98359,0.01 v 37.59826 H 109.71464 V 136.6679 l 16.7498,-0.0713 c -3.24975,-5.87027 -7.56417,-11.38321 -15.26422,-11.30845 -8.48325,-0.42735 -16.821758,6.70985 -17.035648,18.51681 -0.35371,12.78966 8.552398,19.57863 16.469948,19.29319 4.87528,-0.2111 10.74437,-2.82523 12.51101,-8.19902 l 15.33459,7.27872 c -6.50117,10.81313 -17.10123,16.32844 -27.2799,15.90231 -19.158418,0.14306 -34.282368,-11.8022 -34.920398,-33.56918 0,-20.85148 16.47275,-32.51014 30.678778,-33.36087 8.907,-0.49533 16.11536,2.89515 20.14391,8.05587 z"
       style="fill:#0f2d56;fill-opacity:1;fill-rule:evenodd;stroke:none;stroke-width:3.99775577"
       id="path28-3"
       inkscape:connector-curvature="0"
       inkscape:export-filename="C:\Users\suitedoalex\sites\gerdau-logo-5.png"
       inkscape:export-xdpi="135.32367"
       inkscape:export-ydpi="135.32367" /><path
       d="M 168.18911,413.89792 H 356.81085 V 225.27849 H 168.18911 Z"
       style="fill:#0f2d56;fill-opacity:1;fill-rule:nonzero;stroke:none;stroke-width:4.66020346"
       id="path30-1"
       inkscape:connector-curvature="0"
       inkscape:export-filename="C:\Users\suitedoalex\sites\gerdau-logo-5.png"
       inkscape:export-xdpi="135.32367"
       inkscape:export-ydpi="135.32367" /><path
       d="m 260.16243,246.05928 h -13.22986 v 6.27496 c -4.91559,-4.54836 -11.83599,-8.18378 -21.38195,-8.18378 -25.54258,0 -38.34974,20.9327 -38.34974,38.97749 0,18.03824 12.67482,39.0306 37.96434,39.0306 25.28906,0 34.856,-22.60898 34.856,-22.60898 l -11.4464,-6.85889 c 0,0 -7.88926,14.94574 -23.15469,14.94574 -15.2603,0 -24.12307,-13.19397 -24.12307,-24.50847 0,-11.31825 8.99466,-24.38452 24.3873,-24.38452 10.66303,0 16.73433,6.49539 19.45683,10.47986 h -19.59942 v 13.9643 h 34.62066 z"
       style="fill:#ffffff;fill-opacity:1;fill-rule:nonzero;stroke:none;stroke-width:4.66020346"
       id="path32-2"
       inkscape:connector-curvature="0"
       inkscape:export-filename="C:\Users\suitedoalex\sites\gerdau-logo-5.png"
       inkscape:export-xdpi="135.32367"
       inkscape:export-ydpi="135.32367" /><path
       d="m 265.09245,283.18759 h 34.64209 v -13.97362 h -19.61061 c 2.72296,-3.98541 8.80081,-10.48499 19.46895,-10.48499 15.40196,0 24.40035,13.0728 24.40035,24.39756 0,11.32243 -8.8693,24.52572 -24.13986,24.52572 -15.26822,0 -23.1654,-14.95505 -23.1654,-14.95505 l -11.45432,6.86121 c 0,0 9.57486,22.6225 34.87837,22.6225 25.30397,0 37.98812,-21.00401 37.98812,-39.05438 0,-18.05409 -12.8137,-38.99845 -38.37491,-38.99845 -9.55203,0 -16.47289,3.63683 -21.3978,8.18891 v -6.28009 h -13.23498 z"
       style="fill:#ffffff;fill-opacity:1;fill-rule:nonzero;stroke:none;stroke-width:4.66020346"
       id="path34-9"
       inkscape:connector-curvature="0"
       inkscape:export-filename="C:\Users\suitedoalex\sites\gerdau-logo-5.png"
       inkscape:export-xdpi="135.32367"
       inkscape:export-ydpi="135.32367" /></g></svg>